<?xml version="1.0" encoding="iso-8859-1"?>
<!-- Generator: Adobe Illustrator 16.0.0, SVG Export Plug-In . SVG Version: 6.00 Build 0)  -->
<!DOCTYPE svg PUBLIC "-//W3C//DTD SVG 1.1//EN" "http://www.w3.org/Graphics/SVG/1.1/DTD/svg11.dtd">
<svg version="1.1" id="Capa_1" xmlns="http://www.w3.org/2000/svg" xmlns:xlink="http://www.w3.org/1999/xlink" x="0px" y="0px"
	 width="480.466px" height="480.466px" viewBox="0 0 480.466 480.466" style="enable-background:new 0 0 480.466 480.466;"
	 xml:space="preserve">
<g>
	<g>
		<path fill="#F33F12" d="M230.005,182.122c0,0-129.686,140.727-144.703,157.005c-14.999,16.301-52.115,52.173-16.267,85.195
			c35.802,33.035,64.837-2.825,83.573-23.178c18.725-20.307,144.714-157,144.714-157L230.005,182.122z"/>
		<path fill="#F33F12" d="M469.795,156.379L300.126,0l-33.992,36.864L288.8,57.755c-41.384,44.91-203.094,220.346-224.171,243.257l-3.912,4.204
			c-19.25,20.621-51.479,55.092-49.996,94.83c0.765,20.282,10.271,39.001,28.271,55.57c17.872,16.488,36.672,24.85,55.863,24.85
			c38.669,0,69.029-33.304,91.21-57.58l229.116-248.67l20.646,19.028L469.795,156.379z M173.4,401.272l-5.009,5.488
			c-19.18,20.995-45.424,49.791-73.537,49.791c-13.178,0-26.151-6.072-39.649-18.521c-13.324-12.283-20.056-25-20.581-38.908
			c-1.109-29.752,26.857-59.693,43.562-77.582l4.028-4.309C103.32,294.287,265.06,118.809,306.397,73.968l91.186,84.046
			L173.4,401.272z"/>
	</g>
</g>
<g>
</g>
<g>
</g>
<g>
</g>
<g>
</g>
<g>
</g>
<g>
</g>
<g>
</g>
<g>
</g>
<g>
</g>
<g>
</g>
<g>
</g>
<g>
</g>
<g>
</g>
<g>
</g>
<g>
</g>
</svg>
